<svg width="299" height="305" viewBox="0 0 299 305" fill="none" xmlns="http://www.w3.org/2000/svg" class="story-img"><path d="M192.575 50.4966C194.322 50.4969 196.033 50.0037 197.512 49.0738C198.991 48.1439 200.178 46.8152 200.934 45.2406C201.691 43.666 201.988 41.9097 201.79 40.1739C201.592 38.4381 200.908 36.7935 199.817 35.4295C195.249 29.7212 185.249 30.5956 181.249 24.4763C177.859 19.2908 180.989 12.1697 185.504 7.92729C194.343 -0.377979 208.492 -2.41888 219.317 3.04997C230.142 8.51883 236.895 21.1189 235.454 33.1614C234.905 37.7482 233.633 43.3151 237.193 46.2593C240.352 48.8724 245.022 47.3892 248.99 46.3601C254.876 44.8766 261.013 44.6838 266.98 45.7947C272.947 46.9056 278.603 49.294 283.561 52.7962C291.991 58.8378 298.135 68.5956 298.139 78.9669C298.143 89.3381 291.079 99.7896 280.971 102.112C271.063 104.388 260.85 98.8539 253.841 91.4897C246.832 84.1256 242.02 74.9664 235.632 67.0575C229.244 59.1486 220.405 52.1824 210.241 51.9992C204.351 51.8931 197.903 53.9658 192.905 50.8492" fill="#2F2E41"></path><path d="M196.944 54.6263C207.81 54.6263 216.618 45.8181 216.618 34.9525C216.618 24.087 207.81 15.2788 196.944 15.2788C186.079 15.2788 177.271 24.087 177.271 34.9525C177.271 45.8181 186.079 54.6263 196.944 54.6263Z" fill="#FFB8B8"></path><path d="M155.094 165.465C154.747 164.339 154.651 163.152 154.813 161.985C154.975 160.819 155.39 159.702 156.03 158.714C156.67 157.725 157.519 156.889 158.518 156.264C159.516 155.64 160.639 155.241 161.807 155.097L167.817 127.111L178.238 137.724L170.934 162.673C171.046 164.653 170.427 166.604 169.196 168.158C167.965 169.712 166.206 170.761 164.254 171.105C162.301 171.449 160.291 171.065 158.602 170.025C156.914 168.986 155.666 167.363 155.094 165.465Z" fill="#FFB8B8"></path><path d="M256.147 287.02L246.496 288.83L217.399 193.262L238.052 190.589L256.147 287.02Z" fill="#FFB8B8"></path><path d="M239.082 287.368L257.696 283.875L259.895 295.595L229.561 301.287C229.272 299.747 229.289 298.167 229.612 296.634C229.934 295.102 230.555 293.648 231.439 292.355C232.323 291.063 233.453 289.957 234.764 289.101C236.076 288.245 237.543 287.656 239.082 287.368Z" fill="#2F2E41"></path><path d="M192.898 292.166L183.079 292.165L181.61 203.664L202.512 203.664L192.898 292.166Z" fill="#FFB8B8"></path><path d="M176.064 289.36H195.003V301.284H164.139C164.139 299.718 164.448 298.168 165.047 296.721C165.646 295.274 166.525 293.96 167.632 292.852C168.739 291.745 170.054 290.867 171.5 290.267C172.947 289.668 174.498 289.36 176.064 289.36Z" fill="#2F2E41"></path><path d="M177.091 215.708L177.993 172.456C177.925 171.847 170.83 106.318 168.186 89.5746C165.5 72.5601 179.382 63.8357 179.522 63.7497C180.144 63.4951 180.705 63.2795 181.266 63.0726C187.832 60.5881 194.967 60.0116 201.847 61.4097C208.727 62.8078 215.071 66.1234 220.147 70.9737C225.402 75.8229 229.202 82.0414 231.118 88.9306C233.034 95.8198 232.992 103.107 230.996 109.973L226.099 126.926C251.185 172.28 256.333 191.797 256.383 191.988L256.397 192.047L256.394 192.108C255.495 210.095 180.712 215.459 177.529 215.678L177.091 215.708Z" fill="#E5A935"></path><path d="M171.258 81.4849L154.311 148.382L184.638 151.949L171.258 81.4849Z" fill="#E5A935"></path><path d="M212.227 136.78C212.434 135.621 212.893 134.521 213.571 133.558C214.25 132.596 215.131 131.794 216.152 131.209C217.174 130.623 218.312 130.269 219.486 130.171C220.659 130.073 221.84 130.234 222.944 130.642L241.111 108.521L245.51 122.73L227.584 141.558C226.776 143.368 225.332 144.819 223.526 145.636C221.72 146.453 219.676 146.579 217.783 145.99C215.89 145.401 214.279 144.138 213.255 142.441C212.231 140.743 211.865 138.729 212.227 136.78Z" fill="#FFB8B8"></path><path d="M235.953 136.834L220.14 126.604L235.19 110.668L194.382 98.2481L204.881 67.6621L217.797 69.507L250.628 93.8265C254.803 96.9422 257.588 101.571 258.387 106.719C259.185 111.866 257.932 117.121 254.898 121.355L254.826 121.431L235.953 136.834Z" fill="#E5A935"></path><path d="M179.229 23.7704C187.695 28.9383 197.239 32.0831 207.119 32.96L204.179 29.4375C206.319 30.229 208.572 30.6762 210.852 30.7627C213.13 30.7272 215.517 29.8501 216.81 27.9743C217.386 27.0419 217.729 25.9838 217.808 24.8903C217.887 23.7969 217.701 22.7005 217.265 21.6946C216.369 19.6884 214.974 17.9448 213.214 16.6298C210.094 14.1617 206.412 12.5038 202.495 11.8039C198.579 11.104 194.551 11.3838 190.769 12.6184C188.175 13.3937 185.851 14.884 184.065 16.9186C182.371 19.0088 178.675 20.8886 179.543 23.4356L179.229 23.7704Z" fill="#2F2E41"></path><path d="M102.42 20.0437H61.5344V70.9303H102.42V20.0437Z" fill="#2F2E41"></path><path d="M27.7721 257.411L22.1968 277.89L31.4895 284.716L33.9671 282.854L38.3036 261.755L27.7721 257.411Z" fill="#FFB8B8"></path><path d="M97.7743 255.55L95.9159 280.372H107.686V257.411L97.7743 255.55Z" fill="#FFB8B8"></path><path d="M60.6048 98.5454V113.439L83.5263 117.162L103.349 109.095L99.6325 99.7863L60.6048 98.5454Z" fill="#FFB8B8"></path><path d="M79.1893 110.957L59.3658 107.234L54.4099 147.571L42.0202 197.837C42.0202 197.837 23.4357 240.656 25.9136 250.585L27.1526 253.688L25.9136 259.273L38.3033 264.237L43.2592 256.17C43.2592 256.17 46.9761 261.755 53.171 249.964C59.3658 238.174 85.3842 164.946 85.3842 164.946L89.7206 177.358C88.5989 181.187 88.3868 185.224 89.1011 189.149C90.3401 195.354 91.5791 214.592 91.5791 214.592C91.5791 214.592 84.7647 248.103 94.057 250.585L95.9154 258.032L108.925 259.273L111.403 251.826C111.403 251.826 123.792 247.482 120.695 225.762C117.597 204.042 116.358 132.677 116.358 132.677L104.154 102.533L79.1893 110.957Z" fill="#C76317"></path><path d="M25.9138 276.649C25.9138 276.649 22.8164 274.167 21.5774 274.787C20.3384 275.408 7.32922 292.163 7.32922 292.163C7.32922 292.163 -6.2995 302.713 3.6123 303.954C13.5241 305.195 40.7814 291.542 40.7814 288.44C40.7814 285.337 35.054 277.566 35.054 277.566C35.054 277.566 30.8697 280.993 25.9138 276.649Z" fill="#2F2E41"></path><path d="M94.6768 274.787C94.6768 274.787 105.828 274.093 107.686 275.992C109.544 277.89 108.925 287.198 108.925 287.198C108.925 287.198 110.164 303.954 100.252 303.954C90.3404 303.954 92.8184 292.784 92.8184 292.784L94.6768 274.787Z" fill="#2F2E41"></path><path d="M83.5261 43.9357C92.0794 43.9357 99.0132 36.9897 99.0132 28.4214C99.0132 19.8532 92.0794 12.9072 83.5261 12.9072C74.9728 12.9072 68.0389 19.8532 68.0389 28.4214C68.0389 36.9897 74.9728 43.9357 83.5261 43.9357Z" fill="#FFB8B8"></path><path d="M73.3048 38.0403C73.3048 38.0403 81.9776 48.59 64.6321 56.6573C47.2865 64.7247 77.0218 98.2354 77.0218 98.2354C77.0218 98.2354 111.713 85.2035 108.616 59.7602C108.616 59.7602 87.553 56.0368 92.5089 38.6608L73.3048 38.0403Z" fill="#FFB8B8"></path><path d="M64.0123 56.0367C64.0123 56.0367 49.7641 54.175 49.1446 65.9658C48.5252 77.7566 49.1446 106.303 49.1446 106.303C49.1446 106.303 42.9498 131.125 46.0472 152.845C46.0472 152.845 42.3303 178.289 52.2421 177.048C62.1538 175.806 54.72 150.984 54.72 150.984L59.0564 110.647L57.1979 80.8594L65.2512 62.863L64.0123 56.0367Z" fill="#FFB8B8"></path><path d="M108.361 77.258C108.361 77.258 116.86 77.0949 117.249 83.341C117.639 89.5872 114.521 108.716 114.521 108.716L109.845 111.058L105.558 97.7852L108.361 77.258Z" fill="#FFB8B8"></path><path d="M108.925 109.716L107.686 112.819L111.403 122.127C111.403 122.127 96.5353 133.918 97.7743 136.4C99.0132 138.882 105.828 133.297 105.828 133.297L115.739 138.262C115.739 138.262 123.793 129.574 120.076 121.507C118.017 117.17 116.294 112.681 114.923 108.081C114.923 108.081 109.545 107.854 108.925 109.716Z" fill="#FFB8B8"></path><path d="M61.2249 53.8648L59.3665 74.3435C59.3665 74.3435 50.6937 83.0315 60.6055 94.8223L59.3665 104.131C59.3665 104.131 82.2875 102.89 86.6239 104.131C90.9603 105.372 104.352 103.132 104.352 103.132L104.589 96.0634C104.589 96.0634 110.784 87.3755 108.925 74.3435C107.067 61.3116 108.925 56.9676 108.925 56.9676L104.589 56.347C104.589 56.347 101.801 75.2744 82.5972 77.1361C82.5972 77.1361 58.747 79.3081 65.5613 53.8647L61.2249 53.8648Z" fill="#FFE6B5"></path><path d="M85.0749 3.28832C85.0749 3.28832 68.9684 2.28807 65.2514 12.3215C61.5345 22.3548 55.0299 27.6223 55.0299 27.6223C55.0299 27.6223 44.7836 34.7571 49.9068 47.4939C49.9068 47.4939 33.9674 58.224 44.4987 67.7556C44.4987 67.7556 43.8792 77.2873 50.0741 83.809C50.0741 83.809 55.0299 86.3173 53.1715 87.8223C51.3131 89.3273 65.5612 88.324 64.3222 74.779C63.0832 61.234 71.4463 51.6927 71.4463 51.6927C71.4463 51.6927 63.393 34.1311 67.1099 28.1111C69.3666 24.4561 70.3357 21.7305 72.2091 20.153C73.2527 19.2952 74.2202 18.3492 75.1011 17.3257C75.932 16.2713 77.063 15.4926 78.3457 15.0919C79.6283 14.6912 81.0024 14.6873 82.2873 15.0806C87.8626 16.5856 89.1016 21.1006 89.1016 21.1006C89.1016 21.1006 93.1282 31.8864 99.9426 36.9031C106.757 41.9198 94.677 50.6989 94.677 50.6989C94.677 50.6989 96.7768 61.0351 102.231 67.1545C107.686 73.2739 100.659 78.6081 100.252 79.294C99.3231 80.8594 95.6122 90.7447 110.941 90.7885C110.941 90.7885 114.5 83.3073 119.456 78.7923C124.412 74.2773 120.695 61.2339 120.695 61.2339C120.695 61.2339 128.129 56.7189 120.076 45.6823C120.076 45.6823 122.554 35.6489 115.74 29.1273C115.739 29.1273 106.137 -0.223346 85.0749 3.28832Z" fill="#2F2E41"></path><path d="M66.7999 30.5935C67.6552 30.5935 68.3486 29.4821 68.3486 28.1112C68.3486 26.7403 67.6552 25.6289 66.7999 25.6289C65.9445 25.6289 65.2512 26.7403 65.2512 28.1112C65.2512 29.4821 65.9445 30.5935 66.7999 30.5935Z" fill="#FFB8B8"></path></svg>