<svg xmlns="http://www.w3.org/2000/svg" viewBox="0 0 50 50" width="512" height="512" fill="none">
    <!-- Lower Wing (Deep Pink) -->
    <path d="M25 25 C 15 15, 5 15, 10 30 C 5 45, 20 45, 25 25" fill="#FF1493" opacity="0.9" />
    <path d="M25 25 C 35 15, 45 15, 40 30 C 45 45, 30 45, 25 25" fill="#FF1493" opacity="0.9" />

    <!-- Upper Wing (Pinkish White with border) -->
    <path d="M25 25 C 20 5, 5 5, 10 25 C 5 35, 20 35, 25 25" fill="#FFF0F5" stroke="#C71585" stroke-width="1" opacity="0.95" />
    <path d="M25 25 C 30 5, 45 5, 40 25 C 45 35, 30 35, 25 25" fill="#FFF0F5" stroke="#C71585" stroke-width="1" opacity="0.95" />

    <!-- Body -->
    <path d="M25 15 L25 35" stroke="#8B4513" stroke-width="2" stroke-linecap="round" />
</svg>
